<svg version="1.1" viewBox="0 0 605 893" width="605" height="893" xmlns="http://www.w3.org/2000/svg">
<path transform="translate(191, 240)" d="m0 0h226l8 3 6 4 6 9 2 5v14l-5 10-8 7-5 2h-12l1 76 1 42 19 32 8 13 93 155 17 28 14 24 10 17 21 35 6 13 4 14 2 11v31l-5 21-6 15-9 16-8 10-9 10-11 10-16 10-17 8-20 6-14 2h-381l-20-4-15-5-19-10-13-10-10-9-10-12-9-15-6-14-5-17-2-21 1-21 4-17 6-15 11-20 12-19 10-17 39-65 17-28 19-32 17-28 19-32 17-28 19-32 4-8 1-4 1-116-6 1-10-2-8-6-4-6-2-6v-14l5-10 5-5 6-4zm59 54v120l-4 14-9 17-11 18-15 25-16 27-10 17-68 112-39 65-15 24-8 16-3 9-1 5v19l4 15 8 15 11 12 13 9 15 7 11 3 7 1 33 1h304l24-1 15-3 13-5 13-7 11-9 10-12 7-14 4-13 1-6v-8l-3-17-5-11-9-16-10-16-12-21-12-20-14-23-34-56-12-20-17-28-13-22-13-21-12-20-16-27-10-18-4-11-1-6-1-120z" fill="#0A203E" id="path_1"/>
<path transform="translate(180, 635)" d="m0 0h115l11 4 10 9 9 9 8 7 12 9 14 7 15 4 11 1 74 1 10 2 8 4 9 9 15 25 11 19 5 11 2 16-3 13-7 13-7 8-13 8-9 3-12 1h-278l-67-1-11-4-11-8-8-10-4-10-2-9v-10l3-12 7-14 11-17 24-40 8-13 9-14 8-10 8-6 10-4z" fill="#B5CA3F" id="path_2"/>
<path transform="translate(323, 110)" d="m0 0h11l13 3 11 6 10 9 7 10 4 9 2 11v8l-3 14-6 12-10 11-10 6-11 4-6 1h-15l-12-3-10-5-9-8-9-14-3-9-1-6v-14l3-12 7-13 6-7 10-7 9-4z" fill="#B5CA3F" id="path_8"/>
<path transform="translate(360, 580)" d="m0 0h15l10 4 8 6 7 9 3 11v8l-4 13-7 9-7 5-13 4h-11l-12-4-9-7-7-13-1-4v-14l4-10 9-10 12-6z" fill="#B5CA3F" id="path_18"/>
<path transform="translate(384, 25)" d="m0 0h13l10 4 8 6 6 8 4 9v16l-5 12-4 5-9 6-11 4h-11l-10-3-11-8-6-10-2-7v-14l5-12 9-10 10-5z" fill="#B5CA3F" id="path_19"/>
<path transform="translate(288, 492)" d="m0 0h13l11 4 8 7 5 10 1 5v8l-4 11-6 8-9 6-5 2h-15l-8-3-9-8-5-10-1-3v-14l4-10 4-5 10-6z" fill="#B5CA3F" id="path_22"/>
</svg>