<?xml version="1.0" encoding="UTF-8"?>
<svg version="1.1" viewBox="0 0 1024 1024" width="1024" height="1024" xmlns="http://www.w3.org/2000/svg">
<path transform="translate(207,319)" d="m0 0h116l6 4 3 5 1 7-3 7-5 4h-7l1 59 17 29 17 28 19 32 17 28 13 22 9 15 4 12 1 7v11l-3 14-8 16-11 12-11 7-12 5-8 2-10 1h-183l-15-3-10-4-10-7-6-5-8-11-5-10-3-13v-15l4-15 10-18 17-28 66-110 1-61h-7l-6-5-2-6 1-8 5-6zm31 27-1 63-4 9-8 14-9 15-19 32-13 21-27 45-14 23-4 9-1 10 2 10 6 10 9 8 8 4 8 2h185l12-4 8-5 5-5 6-8 3-8v-14l-4-10-19-32-14-23-9-15-17-28-30-50-4-9-1-64z" fill="#01203E"/>
<path transform="translate(205,516)" d="m0 0h54l8 3 8 8 10 8 8 4 10 2 42 1 8 4 6 8 10 17 3 7v11l-5 10-7 6-8 3h-176l-10-4-7-8-2-5v-13l6-12 10-16 9-15 8-12 5-4 4-2z" fill="#B8C942"/>
<path transform="translate(629,431)" d="m0 0h17l21 3h22l3 4v11l-5 5-3 1 3 9 1 12-2 11-6 10-7 6-8 4-11 3-14 1-19-2-3 3v6l1 3 10 2 34 1 11 3 8 4 6 7 4 10v13l-4 10-6 8-11 7-14 4-6 1h-33l-15-3-11-6-6-7-3-10 2-12 6-9 10-7-5-5-2-4v-14l3-6 6-7-4-2-6-7-4-11v-17l4-12 7-9 9-6 10-4zm2 22-10 4-5 6-2 5v9l4 8 6 4 9 2h11l10-3 5-3 3-5 1-4v-7l-3-8-7-6-7-2zm-10 92-7 4-3 5 1 9 5 5 6 2 17 1 14-2 8-4 4-5v-8l-4-5-9-2z" fill="#01203E"/>
<path transform="translate(435,431)" d="m0 0h28l12 3 9 5 8 9 4 13v81l-2 2h-17l-3-3-1-3-5 2-10 5-9 2h-20l-11-3-8-5-5-5-5-7-2-7-1-9 2-12 4-8 5-5 5-4 16-5h41l-1-11-3-6-6-4-4-1h-20l-26 5-4-2-2-8v-7l2-5 7-3 14-3zm10 64-12 2-6 4-2 4v11l3 5 5 3 4 1h17l10-3 5-3 1-2v-21l-1-1z" fill="#011F3D"/>
<path transform="translate(749,431)" d="m0 0h15l16 3 12 6 10 9 6 11 4 12 1 7v20l-3 15-7 14-5 6-10 7-9 4-9 2-9 1h-9l-14-2-12-5-8-6-7-8-6-12-3-14v-23l4-16 5-10 9-10 10-6 13-4zm2 23-11 4-6 7-4 11-1 5v17l3 12 5 8 7 5 7 2h13l11-4 6-7 4-10 1-9v-11l-2-11-3-8-4-5-10-5-4-1z" fill="#01203E"/>
<path transform="translate(881,431)" d="m0 0h16l12 3 9 5 7 8 4 9 2 12v73l-3 3h-21l-3-4-1-69-3-9-5-5-7-2h-11l-12 3-9 5-1 1-1 78-2 2h-21l-3-3v-104l5-3h13l4 2 2 7 11-7 12-4z" fill="#001F3D"/>
<path transform="translate(566,433)" d="m0 0h13l4 3v16l-2 5-15 1-12 3-8 5h-2l-1 3-1 73-2 2-12 1-10-1-2-3v-104l5-3h13l5 3 1 8 10-7 11-4z" fill="#001F3D"/>
<path transform="translate(271,254)" d="m0 0h11l10 4 7 7 4 8v14l-5 10-6 5-9 4h-12l-9-4-5-4-6-12v-11l4-10 4-5 9-5z" fill="#B8C942"/>
<path transform="translate(876,683)" d="m0 0 13 1 12 16 8 11 4 6 1-34 11 1v54h-12l-14-19-10-14v-2h-2l1 35h-13z" fill="#B8C942"/>
<path transform="translate(822,682)" d="m0 0h10l11 4 6 5 6 12v14l-4 10-5 6-9 5-4 1h-13l-9-3-6-5-6-10-1-4v-12l4-10 7-8 8-4zm0 11-8 5-3 7v12l4 7 7 4h9l7-4 4-7v-12l-3-6-6-5-3-1z" fill="#B8C942"/>
<path transform="translate(510,683)" d="m0 0 29 1 9 4 5 4 4 7 1 4v15l-4 10-8 7-9 3h-28v-54zm11 11 1 34h8l8-2 5-5 2-4 1-8-3-9-6-5-3-1z" fill="#B8C943"/>
<path transform="translate(375,684)" d="m0 0h28l6 3 4 4 1 3v8l-4 6-2 1 7 8v11l-4 6-5 3-4 1h-27zm11 9v13h11l5-3v-7l-5-3zm0 22v13h13l4-2 1-7-4-4z" fill="#01203D"/>
<path transform="translate(722,682)" d="m0 0h9l8 3 5 4 3 9-7 2h-5l-3-5-2-1h-8l-3 3 1 4 7 3 12 4 7 6 2 5v7l-3 6-6 5-6 2h-12l-9-3-7-8-1-5 7-2h5l2 4 3 2h11l2-2v-5l-7-3-14-5-6-6-1-3v-9l3-6 6-4z" fill="#B8C942"/>
<path transform="translate(122,683)" d="m0 0 13 1 5 12 15 40v2h-13l-3-11h-22l-3 10-1 1h-12l3-10 16-42zm5 14-6 18v3h15l-3-10-4-11z" fill="#01203E"/>
<path transform="translate(327,683)" d="m0 0h12l4 8 17 45v2h-12l-4-10-22-1-3 11h-13l6-17 14-37zm5 14-6 18v3h15l-3-10-4-11z" fill="#03213F"/>
<path transform="translate(448,682)" d="m0 0 11 1 6 3 4 5 1 7-10 2-4-6h-9l-2 1v6l9 4 10 4 5 4 2 4v10l-4 7-10 5h-12l-8-3-5-5-2-4v-4l10-2 3 5 5 2 9-1 1-1 1-7-10-3-12-5-4-5-1-2v-10l4-7 7-4z" fill="#042340"/>
<path transform="translate(602,683)" d="m0 0h12l5 12 9 25 2-3 12-33h13l-3 10-15 39-2 5h-13l-5-11-15-39-1-4z" fill="#B8C942"/>
<path transform="translate(292,489)" d="m0 0h10l8 5 4 6v11l-3 6-6 5-3 1h-12l-6-4-5-8v-9l3-6 7-6z" fill="#B8C942"/>
<path transform="translate(302,212)" d="m0 0h12l6 4 4 5 2 5-1 9-4 7-7 4h-12l-6-4-5-8v-10l5-8z" fill="#B8C942"/>
<path transform="translate(441,383)" d="m0 0 9 1 6 4 4 7v11l-3 6-6 5-8 2-7-1-7-4-4-7v-11l5-8 6-4zm-2 13-2 3 1 6 7 1 2-2v-6l-2-2z" fill="#052341"/>
<path transform="translate(258,684)" d="m0 0h12l1 43 23 1v10h-36z" fill="#001F3D"/>
<path transform="translate(256,445)" d="m0 0h9l8 5 3 6v8l-5 8-8 4-9-1-7-6-2-4v-9l3-6 5-4z" fill="#B8C942"/>
<path transform="translate(767,683)" d="m0 0h12v55h-12z" fill="#B8C942"/>
<path transform="translate(574,683)" d="m0 0h12v55h-12z" fill="#B8C942"/>
<path transform="translate(672,684)" d="m0 0h12v54h-12z" fill="#B8C942"/>
<path transform="translate(192,684)" d="m0 0h12v54h-12z" fill="#001F3D"/>
<path transform="translate(222,726)" d="m0 0h6l3 3v6l-4 4-7-1-2-3v-6z" fill="#01203E"/>
<path transform="translate(169,726)" d="m0 0h6l3 3v6l-4 4-7-1-2-3 1-7z" fill="#001F3D"/>
</svg>